<?xml version="1.0" encoding="UTF-8"?>
<svg version="1.1" viewBox="0 0 2000 2000" width="500" height="500" xmlns="http://www.w3.org/2000/svg">
<path transform="translate(1645,492)" d="m0 0 3 1v16l4 4 1 103 3 3 1 44 2 1 2 7h2l1-25 3-3 1-117 3-3 1-31h7l1 1v54l4 2v95l4 1v26l7-1 1-26 3-2 1-141 3-2 2-7 3 2 2 6 2 4 1 63 3 3 1 73 3 2v26l4-2 2-3 1-6 1-45 3-3 1-120h7l3 15 1 1 1 17v7l3 1 1 7 1 37 3 4 1 74 3 2v59l-3 5-1 22-6 14-5 8-2 3h-2l-2 5-6 8-6 7h-2l-2 7-6 11-1 11-3 5-1 13 4 2v43l1 3 2 1 1 3 1 36 2 1 1 3 1 40 2 1 1 3 1 45 3 5v55l3 1 1 2v142l-3 4-1 29-3 4-2 9-5 9-3 3-16 8-4 1h-8l-5-3-7-3-7-4-4-8-4-5-4-9-1-16h-2l-1-2v-107l3-4 1-36 3-4 1-34 3-6 1-41 3-3 1-54 3-3v-137l-6-11-4-6-9-11-3-5-5-7-12-24-1-11-3-4v-106l3-4 1-54 3-3 1-37 3-4 1-22 4-7z" fill="#D2BD65"/>
<path transform="translate(253,496)" d="m0 0 7 1 8 5 6 7 9 16 3 10 6 19 2 10 2 7 1 12 2 2 1 6 1 16 2 3 1 7 1 22 2 1 1 4 1 42 2 1 1 3 1 94 2 1v2l-2 1-1 30-3 3-2 15-4 12-3 8-9 19-8 16-4 12-2 2v120l2 2 1 6 1 42 2 1 1 4 1 31 2 1 1 4 1 27 2 1 1 4v24l1 3 3 3v60l-3 3-1 12-6 11-12 12-9 1-2 2-4 1h-10l-2-4h-9l-13-13-5-10-2-9-2-2v-84l3-4 1-24 3-4 1-24 3-4 1-28 3-4 1-37 3-3 1-68 3-3v-46l-3-3-1-15-3-6-2-12-2-3-1-24-3-6v-233l3-4 1-45 3-4 1-19 3-6 1-10 6-12 7-8z" fill="#D2BD65"/>
<path transform="translate(673,812)" d="m0 0h42l2 3 21 1 4 3 9 2 16 8 7 7 2 1v2h2v2h2v2l4 2 4 6 1 8h2l1 3 1 201 6 5 1 5-2 6-19 1h-62l-1-1-1-117-3-5-40-1v118l-4 5-2 1h-77l-5-6v-5l7-3 1-200 3-5 2-8 8-12 5-6 16-10 10-4 11-3 3-2 20-2zm14 27-7 2-8 8v83h43l1-1v-81l-5-5-10-5z" fill="#FDFDFD"/>
<path transform="translate(1044,812)" d="m0 0h83l1 1v107l32-1 5-2 6-7 1-97 1-1h73l5 4 1 4v67l-3 2-1 13-3 4-2 5-6 7-2 5-6 5-8 4-4 1 8 6 7 6v2l4 2 7 8 5 10 1 14 3 3 1 75 2 1 1 6v13l-1 1h-12l-13-1-11-2-21-1-7-4-11-9-4-5-2-10-2-2-1-89-8-8-35-1v127l-5 1h-72l-1-1-1-241-3-10-2-3-1-6z" fill="#FDFDFD"/>
<path transform="translate(821,812)" d="m0 0h57l11 6 6 5 5 8 3 6 1 6v17l5-3 6-8 4-6 7-8h2l2-4 12-12 4-3 9-2 2-2h29l5 3 7 1 8 6 5 3 3 6 5 6 5 13 1 217 3 4v4l-4 1h-54l-7-4-5-3-6-8-4-8-1-187-5-6-4 1-11 6-22 22-1 186-5 1h-71l-3-1-1-2-1-248-3-3v-9z" fill="#FDFDFD"/>
<path transform="translate(1477,816)" d="m0 0h74l6 3 9 1 4 3 9 2 9 5 7 6 8 5 3 6 6 8 4 11v27l-6 11-7 7-19 9h-13l-12-6-10-6-5-6-4-8-1-25-2-8-1-2-1-9-4-5-10-1-5-3-5 2-4 1-5 1-4 3h-2l-2 4-1 1-1 63h55l1 3h10l6 2 3 2 9 2 9 6 9 7 5 3 3 7 2 1v2l3 1 1 2 1 9 3 2v65l-3 4-2 5-6 10-7 7-6 2-5 5-8 4-11 3-5 2-10 1-1 2-16 1h-41l-10-1-3-2-14-2-2-2-9-2-17-9-7-6-7-8-6-12-3-9-1-1v-15l3-7 2-7 9-10 7-4 5-3h28l14 9 4 6 4 9v11l3 1 1 2 1 29 5 4h27l5-3 5-6v-84l-7-8-1-1-35-1v3l-4 1h-31l-2-4h-13l-4-3-5-2-17-17-2-10-2-2v-40l3-5 2-8 4-8 9-10h2l1-3 13-8 17-8 12-2z" fill="#FDFDFD"/>
<path transform="translate(357,812)" d="m0 0h65l12 12 2 1v2l3 1 1 2 1 117 2 2 1 10 7 2 3 2h20l9-5 4-8 1-120 7-8 5-4 2-3h2v-2l2-1h66l1 3-3 5-4 4h-2v118l-3 4-7 14-15 15-20 9-7 2-5 2h-3l1 75 6 5 1 7-3 1h-88l-1-1v-8l3-5v-73l-6-4-11-1-4-3-5-2-7-6-6-3-11-11-5-10-2-9-2-2-1-113-7-7v-5z" fill="#FDFDFD"/>
<path transform="translate(1289,812)" d="m0 0h85l5 4-1 4-5 4v239l7 8v4l-4 1h-87l-1-1v-8l3-5v-237l-3-3v-9z" fill="#FDFDFC"/>
<path transform="translate(1236,1164)" d="m0 0h6l5 4 6 9 13 19 8 12 2 1v-45h7l1 1v62l-1 1h-8l-5-4-10-16-10-15-1-1-1 35-1 1h-10l-1-1z" fill="#FDFDFD"/>
<path transform="translate(1081,1166)" d="m0 0h15l14 2 7 6 3 6v14l-7 8-5 2 8 14 4 5v4l-9 1-5-3-6-11-4-4-2-5-5-1-1 23-2 1h-9l-1-1v-59zm9 9-2 1-1 12 1 7 1 1h12l5-3 2-2v-9l-4-5-2-1z" fill="#FCFBF7"/>
<path transform="translate(629,1166)" d="m0 0h14l17 3 4 4v2h2l2 5v9l-6 12-4 3h-2l8 15 4 8-9 1-6-2-10-20v-2l-7-1v24l-2 1h-9l-1-1v-59zm8 9-1 1-1 13 2 7h13l5-4 1-2v-8l-4-5-2-1z" fill="#FCFBF8"/>
<path transform="translate(997,1166)" d="m0 0 9 1 2 2 1 48 5 2h10l5-3h2l1-48 1-1h9l2 2v42l-4 11-6 6-9 1-1 2h-7l-3-2-9-2-7-6-2-3v-51z" fill="#FEFEFE"/>
<path transform="translate(783,1164)" d="m0 0h10l12 6 3 5v8l-2 1h-9l-3-7h-13l-1 6 3 6 9 3 11 5 5 6 4 7-1 5-4 8-5 5h-9l-1 3h-7l-3-2-9-2-5-5v-9l1-1h8l3 2v5h15l4-5-1-6-4-3-13-4-12-5-1-1v-21l5-5z" fill="#FBFAF4"/>
<path transform="translate(930,1168)" d="m0 0h12l3 5 6 13 11 33 2 5v3l-10 1-2-2-3-7-1-2-23-1-2 7-5 5h-8l-1-3 3-7 7-18 6-19 4-12zm7 15-4 10-5 13v2h16l1-3-6-21z" fill="#FDFDFD"/>
<path transform="translate(1170,1168)" d="m0 0h12l3 5 7 16 10 30 2 5v3l-9 1-3-2-3-7-1-2-23-1-2 7-5 5h-9l1-5 3-8 6-15 6-19 4-12zm7 15-4 10-5 13v2h16l1-3-6-21z" fill="#FDFDFD"/>
<path transform="translate(704,1164)" d="m0 0h28l3 3v9h-23v16h20v11l-3 1h-16l-1 16h23l1 1v6l-13 1h-22l-1-1v-60l1-2z" fill="#FEFEFE"/>
<path transform="translate(1044,812)" d="m0 0h83l1 1v107l32-1 5-2 6-7 1-97 1-1h73l5 4 1 4v67l-3 2-1 13-3 4-2 5-5 4 2-5 5-10 2-12 1-73-73-1v83l-1 13-4 6-5 4-6 2h-34v-107h-81z" fill="#D2BD65"/>
<path transform="translate(840,1166)" d="m0 0h40l4 4v5l-4 1h-12v51l-1 1h-10l-1-1v-51h-15l-1-1z" fill="#F8F6EB"/>
<path transform="translate(1320,1166)" d="m0 0h36l4 4v5l-3 1h-13v51l-1 1h-10l-1-1v-51h-15l-1-1v-6z" fill="#F8F6EB"/>
<path transform="translate(820,819)" d="m0 0 5 5 3 4v247h-3l-1-2-1-248-3-3z" fill="#D2BD65"/>
<path transform="translate(1288,818)" d="m0 0 4 5 3 3 1 71v162l-3 7-4 6h-1l1-7 2-3v-237l-3-3z" fill="#D2BD65"/>
<path transform="translate(1608,963)" d="m0 0 4 2v65l-3 4-2 5-6 10-7 7-6 2-5 5-8 4-11 3-5 2-10 1-1 2-16 1h-41l-10-1-3-2-14-2-2-2-9-2-17-9-7-6-7-8-6-12-3-9-1-1v-15l3-7 2-7 9-10 7-4 5-3h28l14 9 4 6 4 9v10h-1l-3-12-7-10-7-6-10-4h-18l-10 4-8 7-6 10-2 6v18l4 12 7 11 9 8 11 7 19 7 21 4 9 1h36l15-2 17-4 12-5 13-7 11-10 6-10 4-15v-46z" fill="#D2BD65"/>
<path transform="translate(671,956)" d="m0 0h1v118l-4 5-2 1h-77l-3-3 1-2 81 1v-116z" fill="#D2BD65"/>
<path transform="translate(650,816)" d="m0 0h14v1l-16 3-15 5-13 7-10 8-7 9-5 10-2 6-1 197-2 4h-1v-200l3-5 2-8 8-12 5-6 16-10 10-4 11-3z" fill="#D2BD65"/>
<path transform="translate(1371,823)" d="m0 0 2 1v239l7 8v4h-3l-3-7-5-5v-236z" fill="#D2BD65"/>
<path transform="translate(563,824)" d="m0 0h1v118l-3 4-7 14-15 15-20 9-7 2-5 2h-3l1 75 6 5 1 7-3 1h-88v-1l87-1-1-5-6-7v-76l20-6 16-8 10-8 8-11 5-10 1-4 1-109z" fill="#D2BD65"/>
<path transform="translate(937,858)" d="m0 0h6l5 5-1 3-5-6-4 1-11 6-22 22-1 186h-5l2-1v-186l8-8 8-7 14-12z" fill="#D2BD65"/>
<path transform="translate(677,953)" d="m0 0h33l6 4 2 4v116l23-1 58-1-1 4-19 1h-62l-1-1-1-117-3-5-40-1 2-2z" fill="#D2BD65"/>
<path transform="translate(683,838)" d="m0 0h18l10 4 3 3-1 2-12-6-14-1-7 2-4 2-2 4-1 1-1 83 43-1 1-80h1l1 81-1 1h-49v-80l4-8 6-5z" fill="#D2BD65"/>
<path transform="translate(1044,819)" d="m0 0 5 5 3 5 1 247-3-1-1-241-3-10z" fill="#D2BD65"/>
<path transform="translate(991,816)" d="m0 0h7l8 6 5 3 3 6 5 6 5 13v216h-1l-1-22-1-192-5-14-8-11-8-6-9-4z" fill="#D2BD65"/>
<path transform="translate(1125,946)" d="m0 0h34l4 2h-35v127h-3z" fill="#D2BD65"/>
<path transform="translate(721,816)" d="m0 0h17l4 3 9 2 16 8 7 7 2 1v2h2v2h2v2l4 2 4 6 1 8h2l1 3 1 201 6 5 1 5-7-6-2-3-1-194-2-10-6-12-9-10-11-8-17-8-17-4-7-1z" fill="#D2BD65"/>
<path transform="translate(704,1164)" d="m0 0h28l3 3v9h-23v16h20v3h-18l-5-1v-20h25v-6h-33l1 58 21 1v1h-22l-1-1v-60l1-2z" fill="#D2BD65"/>
<path transform="translate(840,1166)" d="m0 0h40l4 4v5l-4 1h-12v51l-1 1h-10v-1h7v-52l1-1 15-1v-4h-40z" fill="#D2BD65"/>
<path transform="translate(821,812)" d="m0 0h57l11 6 6 5 5 8 3 6 1 6v17l5-3 6-8 4-6 7-8h2l-2 4-10 13-8 10-6 7-2-1v-28l-3-10-6-8-9-5-7-2h-55z" fill="#D2BD65"/>
<path transform="translate(357,812)" d="m0 0h65l4 3v2l-9-3h-59l3 6 5 5 1 108 1 9-4-4-1-113-7-7v-5z" fill="#D2BD65"/>
<path transform="translate(417,984)" d="m0 0 9 1 2 2v73l-4 7-4 4 1-6 2-3v-73l-6-4z" fill="#D2BD65"/>
<path transform="translate(1033,1167)" d="m0 0h9l2 2v42l-4 11-6 6-9 1-1 2h-7l-3-2-9-2-7-6-2-3v-16h1l1 11 4 8 5 4 9 2 12-1 7-4 4-6 2-10 1-37-8-1v39l-2 9-1-3 1-45z" fill="#D2BD65"/>
<path transform="translate(948,867)" d="m0 0h1l1 180 3 10 6 8 8 6 9 3 48 1v1h-54l-7-4-5-3-6-8-4-8z" fill="#D2BD65"/>
<path transform="translate(1506,840)" d="m0 0h8l-4 4h-6l-6 4h-2l-2 4-1 1-1 63-3-3-1-3v-53l4-8 7-6z" fill="#D2BD65"/>
<path transform="translate(1081,1166)" d="m0 0h15l14 2 7 6 3 6v14l-7 8-5 2 8 14 4 5-1 4-10-16-3-6 1-4 7-4 3-5 1-9-3-8-5-4-9-2-23-1 1 58 2 2-5-1v-59z" fill="#D2BD65"/>
<path transform="translate(1244,1181)" d="m0 0 3 1 7 12 11 16 8 12 4 4 3 2-7-1-6-8-11-17-7-10-1 35-1 1h-5l2-1z" fill="#D2BD65"/>
<path transform="translate(1163,948)" d="m0 0 5 2 5 6 1 3 1 55 1 31 4 12 6 8 8 6-3 1-11-9-4-5-2-10-2-2-1-89-8-8z" fill="#D2BD65"/>
<path transform="translate(1592,835)" d="m0 0 5 2 6 4 3 6 6 8 4 11v27l-6 11-7 7-19 9h-13l-12-6-1-2 9 3 5 1h11l10-3 8-5 8-9 4-10 1-6v-8l-3-14-6-12-8-9z" fill="#D2BD65"/>
<path transform="translate(1320,1166)" d="m0 0h36l4 4v5l-3 1h-13v51l-5 1 2-1v-53l17-1v-4l-40-1z" fill="#D2BD65"/>
<path transform="translate(1477,816)" d="m0 0h74l6 3-4 1-15-2h-45l-20 3-17 5-17 9-11 9-7 11-4 10h-1v-6l5-10 9-10h2l1-3 13-8 17-8 12-2z" fill="#D2BD65"/>
<path transform="translate(1248,981)" d="m0 0 4 3v75h-1l-2-16-1-14z" fill="#D2BD65"/>
<path transform="translate(997,1166)" d="m0 0 9 1 2 2 1 48 5 2h10l5-3 2 1-5 4-9 1-8-3-4-5-1-4v-42h-7v17h-1v-18z" fill="#D2BD65"/>
<path transform="translate(1236,1164)" d="m0 0h6l5 4 6 9 13 19 8 12 2 1v6l-4-5-16-24-11-16-1-1-7-1v59h-1z" fill="#D2BD65"/>
<path transform="translate(710,1200)" d="m0 0h22v3l-3 1h-16l-1 16h23l1 1v6l-2-1v-4h-24l-1-1v-20z" fill="#D2BD65"/>
<path transform="translate(649,1168)" d="m0 0h8l5 3 2 4h2l2 5v9l-6 12-4 3h-2l8 15 4 8h-3l-8-14-5-10 9-7 3-4v-13l-4-6-5-3-6-1z" fill="#D2BD65"/>
<path transform="translate(498,819)" d="m0 0 2 1-7 8-3 8-1 112h-1v-118l7-8z" fill="#D2BD65"/>
<path transform="translate(368,943)" d="m0 0 2 2 6 12 8 9 13 9 13 6 7 2v1h-11l-4-3-5-2-7-6-6-3-11-11-5-10z" fill="#D2BD65"/>
<path transform="translate(634,1174)" d="m0 0h14l7 3 3 5-1 9-4 5-2 1h-17l-1-1v-21zm3 1-1 1-1 13 2 7h13l5-4 1-2v-8l-4-5-2-1z" fill="#D2BD65"/>
<path transform="translate(624,1168)" d="m0 0h1l1 59h7v-24h3v24l-2 1h-9l-1-1z" fill="#D2BD65"/>
<path transform="translate(673,812)" d="m0 0h42l2 4h-53v-1l7-2z" fill="#D2BD65"/>
<path transform="translate(1087,1174)" d="m0 0h13l7 2 3 4 1 7-3 7-5 3h-17v-22zm3 1-2 1-1 12 1 7 1 1h12l5-3 2-2v-9l-4-5-2-1z" fill="#D2BD65"/>
<path transform="translate(1252,1059)" d="m0 0 3 1 1 6v13l-1 1h-12l-13-1-11-2v-1h36l-3-13z" fill="#D2BD65"/>
<path transform="translate(1170,1168)" d="m0 0 4 1-6 12-10 29-6 17h6v1h-9l1-5 3-8 6-15 6-19 4-12z" fill="#D2BD65"/>
<path transform="translate(783,1164)" d="m0 0h10l12 6 3 5v8h-1l-3-9-5-4-6-2h-10l-7 3-5 4-2 7h-1v-8l5-5z" fill="#D2BD65"/>
<path transform="translate(1176,1179)" d="m0 0h2l6 16 4 13-1 1h-14v-1l11-1-3-12-3-11-2 3-6 17-2 4h-2l3-10z" fill="#D2BD65"/>
<path transform="translate(930,1168)" d="m0 0 4 1-3 4-7 20-12 34h6v1h-8l-1-3 3-7 7-18 6-19 4-12z" fill="#D2BD65"/>
<path transform="translate(1415,865)" d="m0 0 1 4-1 13v24l1 8-4-4v-40z" fill="#D2BD65"/>
<path transform="translate(936,1179)" d="m0 0h2l5 13 5 16-1 1h-14v-1l11-1-3-12-3-11-2 3-6 17-2 4h-2l3-10z" fill="#D2BD65"/>
<path transform="translate(786,1173)" d="m0 0 8 2v1l-13 1-1 6 3 6 9 3 11 5 4 4-1 2-5-4-10-4-8-3-6-4-1-2v-7l6-5z" fill="#D2BD65"/>
<path transform="translate(1507,940)" d="m0 0h13l9 3 7 8-1 3-7-8-1-1-35-1v-1z" fill="#D2BD65"/>
<path transform="translate(1555,919)" d="m0 0 8 1 4 3 9 2 9 6 9 7 5 3 2 7-5-5-10-8-15-8-14-5-5-1z" fill="#D2BD65"/>
<path transform="translate(942,1169)" d="m0 0 2 1 7 16 11 33 2 5v3h-2l-13-37-7-19z" fill="#D2BD65"/>
<path transform="translate(1182,1169)" d="m0 0 2 1 8 19 10 30 2 5v3h-2l-13-37-7-19z" fill="#D2BD65"/>
<path transform="translate(506,812)" d="m0 0h66l1 3-3 5-4 4-2-1 5-6v-3h-58l-8 4h-2l1-3h2v-2z" fill="#D2BD65"/>
<path transform="translate(1488,1011)" d="m0 0 3 1 1 2v29l-2-1-2-8z" fill="#D2BD65"/>
<path transform="translate(487,950)" d="m0 0h1l-1 7-8 7-6 2h-17l-10-4-2-3 7 2 3 2h20l9-5z" fill="#D2BD65"/>
<path transform="translate(1535,1038)" d="m0 0 1 3-5 6-9 4h-18l-6-2v-1l27-1 5-3z" fill="#D2BD65"/>
<path transform="translate(1416,915)" d="m0 0 3 4 6 9 9 8 12 5 6 2v1h-10l-4-3-5-2-17-17z" fill="#D2BD65"/>
<path transform="translate(1455,944)" d="m0 0 10 1h13l14-1v3l-4 1h-31z" fill="#D2BD65"/>
<path transform="translate(1164,1214)" d="m0 0h25l3 3 3 10-3-1-3-7-1-2-23-1-2 7-3 2 1-5z" fill="#D2BD65"/>
<path transform="translate(924,1214)" d="m0 0h24l4 3 3 9 3 2-5-1-5-10-23-1-2 7-4 4 3-9z" fill="#D2BD65"/>
<path transform="translate(1492,916)" d="m0 0h55l1 3 2 1-21-2-37-1z" fill="#D2BD65"/>
<path transform="translate(807,1203)" d="m0 0 4 5 1 5-5 10-5 5h-9l4-2 6-4 3-3 1-3z" fill="#D2BD65"/>
<path transform="translate(957,812)" d="m0 0h29l5 4-8-1h-22l-8 1z" fill="#D2BD65"/>
<path transform="translate(434,825)" d="m0 0h2v2l3 1 1 2v59h-1l-1-54-4-8z" fill="#D2BD65"/>
<path transform="translate(1540,884)" d="m0 0h1l4 13 6 8 7 6-3 1-8-6-4-7-3-5z" fill="#D2BD65"/>
<path transform="translate(1232,947)" d="m0 0 4 2 7 8 5 10v12h-1l-2-10-7-14z" fill="#D2BD65"/>
<path transform="translate(768,1187)" d="m0 0 2 3 1 4 4 2 20 7 1 2-10-2-17-7-1-1z" fill="#D2BD65"/>
<path transform="translate(1092,1203)" d="m0 0 5 1 12 20 2 3-5-2-6-11-4-4-2-5z" fill="#D2BD65"/>
<path transform="translate(643,1204)" d="m0 0 3 3 10 17v2l2 1-5-1-10-20z" fill="#D2BD65"/>
<path transform="translate(946,816)" d="m0 0h7l-2 2-10 5-12 12v-3l13-13z" fill="#D2BD65"/>
<path transform="translate(1236,916)" d="m0 0 1 2-2 5-6 5-8 4-4-1 8-4 9-8z" fill="#D2BD65"/>
<path transform="translate(1570,824)" d="m0 0h7l11 6 4 5-5-2-14-7z" fill="#D2BD65"/>
<path transform="translate(1535,848)" d="m0 0 3 3 2 5v13h-1l-2-8-1-2z" fill="#D2BD65"/>
<path transform="translate(768,1216)" d="m0 0 4 5v2l4 2 6 2v1h-7l-6-4-1-2z" fill="#D2BD65"/>
<path transform="translate(1516,840)" d="m0 0 11 1 4 3h-10l-5-3z" fill="#D2BD65"/>
<path transform="translate(1276,1164)" d="m0 0h7l1 5-7-1-1 3z" fill="#D2BD65"/>
<path transform="translate(794,1176)" d="m0 0 4 2 4 4 4 2h-9z" fill="#D2BD65"/>
<path transform="translate(1214,932)" d="m0 0 3 1 8 6 2 3-5-2-8-5z" fill="#D2BD65"/>
<path transform="translate(589,1067)" d="m0 0 2 1-5 7-2-1v-5z" fill="#D2BD65"/>
<path transform="translate(782,1228)" d="m0 0h11l-1 3h-7z" fill="#D2BD65"/>
<path transform="translate(1602,949)" d="m0 0h2v2l3 1 1 2v7l-2-2-4-8z" fill="#D2BD65"/>
<path transform="translate(440,947)" d="m0 0 3 2 1 10-3-4-1-2z" fill="#D2BD65"/>
</svg>
